<?xml version="1.0" encoding="UTF-8"?><svg id="Layer_1" xmlns="http://www.w3.org/2000/svg" xmlns:xlink="http://www.w3.org/1999/xlink" viewBox="0 0 218.62 149.25"><defs><style>.cls-1{fill:none;}.cls-2{fill:#d3ad35;}.cls-3{fill:#fff;}.cls-4{fill:#53341b;}.cls-5{clip-path:url(#clippath);}</style><clipPath id="clippath"><rect class="cls-1" width="218.62" height="149.25"/></clipPath></defs><g class="cls-5"><path class="cls-4" d="M91.29,54.5s0-.07-.02-.09c0,0-.01,0-.02,0-1.68-.33-3.35-.49-5.12-.63-1.18-.09-2.09-.34-3.32-.44-1.67-.14-2.85-.25-3.54-.33-1.96-.22-4.12-.69-4.49-3-.06-.4-.04-.91.07-1.51.29-1.59.66-3.33,1.09-5.21.38-1.65.65-2.82,1.67-3.86.99-1.01,2.47-.99,3.69-.48,1.09.46,1.64,1.46,1.8,2.61.06.41.03.94-.07,1.59-.17,1.05-.35,2.06-.54,3.04-.01.06.03.11.08.12,0,0,0,0,.01,0,2.75.25,5.56.56,8.42.91.89.11,2.04.23,3.43.37.94.09,2.13.25,3.59.47.4.06.76.19,1.06.39,1.37.9,1.92,2.17,1.64,3.81-.11.67-.6,1.6-.99,2.25-2.89,4.77-7.04,11.61-12.45,20.53-.41.68-.75,1.11-1,1.3-.84.61-1.91.79-2.94.64-.93-.14-1.67-.59-2.22-1.35-.69-.94-.6-2.39-.22-3.49.1-.3.38-.82.83-1.57,1.12-1.87,2.82-4.71,5.11-8.52.18-.31.28-.47.29-.49,1.22-2.04,2.61-4.39,4.16-7.03"/><path class="cls-4" d="M70.26,53.88c-.65,1.49-1.87,2.76-3.69,2.16-1.49-.49-1.71-2.19-1.69-3.53.02-1.41.27-2.8.75-4.16.58-1.66,1.7-2.56,3.36-2.7.87-.08,2,.18,2.72.66,1.05.71,1.08,2.21.59,3.22-.3.63-.67,1.23-1,2-.22.52-.57,1.3-1.03,2.36"/><path class="cls-4" d="M55.14,54.41c-.08-.03-.25-.05-.49-.07-1.46-.08-6.57-.38-15.31-.89-.8-.05-1.71-.38-2.16-1.01-.08-.11-.16-.2-.24-.26-.03-.02-.05-.04-.07-.07-.65-.89-.85-1.9-.61-3.02.27-1.26,1.31-2.16,2.53-2.52.34-.1.87-.12,1.59-.06.15.01,5.7.35,16.64,1.02.78.05,1.18.07,1.18.07.94.05,1.68.43,2.54.98.53.34.87.79,1.03,1.35.22.79.34,1.57.36,2.34,0,.32.01.52.02.6.22,5.23.44,10.48.66,15.75.03.72.05,1.18.07,1.39.03.53.07,1.65.11,3.37.02.67-.05,1.17-.19,1.5-.84,1.96-3.51,2.65-5.19,1.33-.96-.75-1.48-1.82-1.56-3.19-.05-.97-.08-1.73-.07-2.29,0-.53-.03-1.3-.11-2.29-.07-.9-.12-1.83-.16-2.79-.05-1.51-.13-2.42-.16-3.56-.02-.78-.04-1.32-.06-1.63-.08-.96-.06-1.99-.13-2.89-.03-.49-.06-1-.08-1.53-.03-.96-.05-1.47-.06-1.54,0-.05-.04-.08-.08-.1"/><path class="cls-4" d="M170.37,67.24c.07-.01.12-.08.11-.15,0,0,0,0,0,0l-2.41-12.34c-.02-.09-.09-.15-.18-.16-2.96-.36-4.98-.29-9.14-.35-2.13-.03-4.36-.22-6.32-.83-.95-.3-1.38-.96-1.55-1.94-.19-1.1-.3-2.07.29-2.96.53-.79,1.18-1.34,2.12-1.46.64-.09,1.14-.2,1.91-.16,10.32.57,15.52.86,15.6.86.7.02,1.2.1,1.51.24.43.19.85.47,1.25.85.04.04.07.08.1.12.19.32.39.7.6,1.13.15.3.27.71.36,1.21.58,3.1,1.53,8.04,2.83,14.8.02.09.1.15.19.14.51-.06.96-.12,1.37-.18.82-.12,1.58.12,2.31.5,1.22.62,1.93,1.66,1.86,3.06-.05.95-.34,1.72-.87,2.32-.05.06-.12.11-.19.14-.79.4-1.31.64-1.57.73-.17.06-.44.12-.82.17-11.88,1.83-19.24,2.96-22.06,3.38-2.56.38-5.52.53-5.94-2.81-.08-.65-.21-.96.05-1.55.05-.11.24-.46.58-1.05.03-.05.07-.1.11-.15.55-.57,1.21-.91,1.98-1.03,5.84-.92,11.14-1.76,15.9-2.53"/><path class="cls-4" d="M139.13,54.41c-1.3.16-2.64.08-3.7-.66-1.15-.8-1.38-2.36-1.12-3.68.22-1.08.87-1.83,1.95-2.24,1.72-.66,3.67-.73,5.58-.76,1.19-.02,2.4.1,3.29.76.87.65,1.33,1.58,1.37,2.8.03.91-.01,1.97-.13,3.17-.19,2.03-.42,4-.68,5.91-.21,1.53-.39,3.17-.99,4.57-.68,1.58-2.82,1.39-4.22,1.19-.07-.01-.14-.03-.2-.06-.88-.45-1.44-1.16-1.66-2.13-.16-.69-.08-1.39-.02-2.15.17-1.91.36-4.14.59-6.67,0-.03-.02-.05-.05-.06h0"/><path class="cls-3" d="M118.55,55.96c3.3,0,5.97,2.67,5.97,5.97s-2.67,5.97-5.97,5.97-5.97-2.67-5.97-5.97,2.67-5.97,5.97-5.97"/><path class="cls-4" d="M43.48,60.73c-.14,1.54-.54,5.62-1.19,12.22-.12,1.25-.12,1.88-1,2.58-1.26,1-2.61,1.2-4.03.59-1.5-.65-1.94-2.58-1.82-4.14.1-1.2.44-5.09,1.05-11.69.1-1.09.22-1.77.37-2.03,1.11-2.04,4.45-2.46,5.83-.44.63.92.89,1.89.8,2.92"/><path class="cls-4" d="M161.15,60.13c1.01,0,1.84.82,1.84,1.84s-.82,1.84-1.84,1.84-1.84-.82-1.84-1.84.82-1.84,1.84-1.84"/><path class="cls-4" d="M80.49,80.88c1.02,0,1.84.82,1.84,1.84s-.82,1.84-1.84,1.84-1.84-.82-1.84-1.84.82-1.84,1.84-1.84"/><path class="cls-4" d="M87.11,80.89c1.01,0,1.83.82,1.83,1.84s-.82,1.83-1.83,1.83-1.84-.82-1.84-1.83.82-1.84,1.84-1.84"/><path class="cls-4" d="M160.93,81.01c1.02,0,1.84.82,1.84,1.84s-.82,1.84-1.84,1.84-1.84-.82-1.84-1.84.82-1.84,1.84-1.84"/><path class="cls-4" d="M118.37,81.07c1.93,0,3.02,0,3.25,0,1.07-.02,1.74.06,2.02.22,1.89,1.11,1.17,3.88-1.06,3.85-.43,0-1.13,0-2.11,0-.04,0-.08.04-.08.08,0,.72,0,1.21,0,1.47.01.72-.03,1.2-.12,1.45-.3.81-1.01,1.33-1.92,1.33s-1.62-.52-1.92-1.33c-.09-.25-.13-.73-.12-1.45,0-.26,0-.75,0-1.47,0-.04-.04-.08-.08-.08-.98,0-1.68,0-2.11,0-2.23.04-2.96-2.74-1.06-3.84.28-.17.96-.24,2.03-.22.24,0,1.32,0,3.26,0"/><path class="cls-4" d="M83.49,85.93c1.01,0,1.84.82,1.84,1.84s-.82,1.84-1.84,1.84-1.84-.82-1.84-1.84.82-1.84,1.84-1.84"/><path class="cls-4" d="M124.06,61.93c0-3.04-2.47-5.51-5.51-5.51s-5.51,2.47-5.51,5.51,2.47,5.51,5.51,5.51,5.51-2.47,5.51-5.51ZM129.26,61.53s.06.02.06.05c0,0,0,0,0,0-.06,1.47.47,2.57,1.61,3.3.71.45,1.55.62,2.37.48.03,0,.06.02.07.05,0,0,0,.02,0,.02-2.07,8.75-11.28,13.78-19.73,10.75-4.5-1.61-7.9-5.17-9.37-9.75-1.21-3.76-.78-8.06,1.11-11.57,2.94-5.45,8.76-8.51,14.89-7.9.05,0,.09.05.08.1,0,.01,0,.02,0,.03-.55,1.16-.45,2.47.29,3.51.63.89,1.55,1.37,2.75,1.46.04,0,.07.04.07.08,0,0,0,.01,0,.01-.45,1.61.31,3.17,1.72,3.96.14.08.29.11.41.18.04.02.05.07.03.11-1.06,2.03-.15,4.31,2.01,5.01.54.18,1.11.16,1.64.1"/><path class="cls-4" d="M37.09,131.54c.23-.61-.08-1.29-.69-1.51l-.38-.14c-.61-.23-1.29.08-1.51.69l-.14.38c-.23.61.08,1.28.69,1.51l.38.14c.61.23,1.29-.08,1.51-.69l.14-.38ZM52.75,126.45c.12-.46.3-1.25.21-1.65-.14-.65-.64-.89-1.22-1.12-2.11-.83-5.6-2.25-8.25-3.09-.72-.23-1.26-.03-1.6.59-.56,1.02-.31,1.72.74,2.12,1.95.74,4,1.53,6.14,2.38.29.11.68.18.85.26.13.06.21.2.19.34-.05.42-.15.88-.28,1.39-.3,1.12-.88,3.29-1.74,6.51-.47,1.75-1.05,3.65-1.74,5.7-.1.3-.13.61-.1.94.18,1.61,2.68,1.01,2.99-.1.99-3.57,2.26-8.32,3.81-14.27M59.07,128.66c.27-.79.61-1.79.47-2.48-.2-.95-2.07-1.23-2.77-1.34-1.12-.17-2.05.3-2.08,1.54,0,.04,0,.09.03.13.18.43.38.71.61.82.34.17.61.3.8.4.09.04.13.14.1.23-.04.12-1,3.04-2.89,8.76-.57,1.73,1.42,2.85,2.56,1.36.03-.03.05-.07.06-.11.07-.2,1.11-3.3,3.12-9.31M65.79,130.79c.31-.96.5-1.66.55-2.1.1-.79-.22-1.31-.94-1.57-.88-.31-1.87-.46-2.97-.45-.82,0-1.31.41-1.45,1.2-.24,1.34.87,1.7,1.92,1.78.06,0,.11.06.11.12,0,0,0,.02,0,.03-.31,1.04-.65,2.16-1.03,3.37-.27.86-.24,1.71.8,1.96,1.11.27,1.42,0,1.83-1.01.32-.77.72-1.87,1.19-3.31M79.97,132.95c.1-1.01.58-2.75-.75-3.19-.49-.16-.99-.3-1.51-.41-2.05-.44-4.56-.98-7.53-1.6-.38-.08-.65-.09-.82-.03-.87.31-1.17,1.19-.83,2.05.01.03.07.16.17.39.02.05.03.11.01.17-.74,2.87-1.61,5.97-2.38,9.04-.24.94-.18,1.93.9,2.19.94.23,1.53-.1,1.77-.98,1.29-4.82,2.08-7.8,2.37-8.93.11-.43.12-.69.65-.58,2.18.46,3.8.8,4.86,1.03.1.02.17.11.17.22,0,.21-.02.41-.04.62-.33,3.25-.6,5.78-.78,7.57-.14,1.34-.26,2.52,1.29,2.66.65.06,1.26-.29,1.36-.94.41-2.93.78-6.01,1.11-9.26M90.33,142.93l.03-.42c.04-.64-.45-1.18-1.08-1.22l-.46-.03c-.64-.04-1.18.44-1.22,1.08l-.02.42c-.04.64.44,1.18,1.08,1.22l.46.03c.64.04,1.18-.45,1.22-1.08M93.3,136.56l-.75,6.27c-.09.77.46,1.46,1.22,1.55h.1c.77.1,1.46-.44,1.55-1.21l.75-6.27c.09-.77-.46-1.46-1.22-1.55h-.09c-.77-.1-1.46.44-1.55,1.21M105,144.21c.09-.17.13-.49.13-.95-.05-3.62-.08-7.06-.11-10.31,0-.15-.07-.41-.19-.78-.03-.08-.07-.15-.13-.2-.41-.38-.88-.6-1.41-.64-.33-.03-3.21-.3-8.63-.81-.69-.07-1.44.43-1.55,1.16-.13.9.38,1.65,1.3,1.74,1.46.13,3.89.35,7.31.65.19.02.32.09.39.22.01.02.02.05.02.07.05,1.86.01,4.57.12,7.36.04.94-.3,2.82,1.11,3.17.64.16,1.33-.09,1.64-.67M119.53,142.3c.03-.09.03-.31,0-.65-.32-3.81-.59-6.68-.82-8.61-.06-.52-.14-1.4-.36-1.71-.42-.6-.95-.73-1.77-.74-2.46-.04-5.12-.1-7.96-.16-.66-.01-1.1.04-1.32.16-.38.21-.6.59-.66,1.12-.13,1.11.63,1.26,1.4,1.65.04.02.07.07.06.12-.08.74-.13,1.2-.17,1.39-.27,1.31-.79,3.39,1.23,3.31,1.35-.06,1.53-1.94,1.61-2.98.04-.52.15-1.1.35-1.74.02-.07.09-.11.16-.11l4.39.15c.11,0,.2.09.21.19l.71,6.88c.01.11-.06.2-.17.22-.37.06-2.89.45-7.57,1.18-.47.07-.91.21-1.34.41-.42.19-.63.54-.64,1.03-.01.71.25,1.18.79,1.42.24.11.61.13,1.09.07,3.47-.41,6.76-.94,9.88-1.59.55-.11.76-.52.91-1.01M134.26,132.29c.07-1.02.15-2.46-.94-2.83-.16-.06-.72-.06-1.7-.02-4.92.19-8.08.33-9.49.42-.87.05-1.87.18-1.96,1.25-.14,1.56.84,1.43,1.92,1.79.05.02.09.07.1.12.29,6.32.46,10.1.52,11.36.02.55.1,1.64.22,3.27.03.45.1.77.21.98.35.68.93.65,1.73.59.05,0,.1-.02.15-.04.52-.27.77-.66.75-1.16-.15-4.52-.35-9.61-.59-15.27,0-.05.03-.1.09-.11.19-.03.4-.06.63-.06,1.24-.04,2.69-.11,4.36-.2.34-.02.64-.01.9.01.1,0,.17.09.16.19-.19,3.24-.34,5.95-.46,8.13-.01.23-.13.35-.35.37-.93.06-3.02-.11-3.12,1.27-.05.68.07,1.29.67,1.58.16.08.47.11.93.1.81-.02,1.62-.05,2.43-.08.69-.03,1.12-.08,1.29-.16.57-.29.88-.76.92-1.44.18-2.81.4-6.17.65-10.07M144.86,138.51l-.43.1c-.63.15-1.03.78-.88,1.41l.08.36c.15.63.77,1.03,1.41.88l.43-.1c.63-.15,1.03-.78.88-1.41l-.08-.36c-.15-.63-.78-1.03-1.41-.88M156.95,132.69c0,.1-.03.19-.09.26l-2.98,3.19s-.09.07-.15.07c-.33.03-.75.12-1.27.27-.21.06-.43.08-.63.05-.09-.01-.17-.08-.19-.17l-1.86-7.41s0,0,0,0c0-.05.02-.09.07-.1l6.58-1.17s0,0,.01,0c.09,0,.17.06.18.15l.33,4.86ZM159.35,135.11c.35-.37.77-.88.79-1.46,0-.24,0-.5-.02-.76-.33-4.02-.51-6.36-.57-7.03-.05-.62-.63-1.09-1.17-1.25-.1-.03-.2-.04-.3-.02-4.51.8-7.84,1.39-9.98,1.77-.68.12-1.55.35-2.04.87-.45.48-.17,1.43.21,1.83.29.3.76.35.78.86,0,.03.03.15.09.36.52,1.9,1.04,3.89,1.55,5.97.32,1.29.59,2.23.82,2.82.32.83,1.19.87,2,.73.73-.13,1.57-.24,2.54-.33.83-.08,1.46-.28,2.01-.86.44-.47,1.53-1.63,3.29-3.49M166.55,129.28c-.1-.83-.29-1.99-.57-3.48-.19-.99-.37-1.69-.54-2.11-.3-.74-.83-1.04-1.59-.91-.92.16-1.86.51-2.82,1.05-.72.41-.94.99-.68,1.75.44,1.29,1.58,1.07,2.54.62.06-.03.13,0,.15.06,0,0,0,.02,0,.02.23,1.06.48,2.21.74,3.44.18.88.62,1.61,1.65,1.32,1.11-.31,1.24-.7,1.11-1.78M184.32,126.98c-.08-.89-.59-1.34-1.44-1.36-.63,0-.83.16-1.49.52-.09.05-.2.02-.25-.07-1.01-1.59-2.29-3.65-3.86-6.17-.35-.57-.79-1.01-1.5-1.01-.12,0-.34.05-.65.15-2.31.77-4.65,1.53-7.02,2.3-.33.11-.63.26-.91.45-.87.62-.49,1.69.09,2.32.13.15.32.22.52.2.89-.08,1.79-.28,2.69-.62,1.51-.55,2.96-1.15,4.56-1.57.06-.02.13.01.16.07l3.42,5.41s0,.05-.01.06h0c-1.45.85-3.7,2.17-6.77,3.96-.56.33-.83.79-.8,1.39,0,.04.01.09.03.13.38.9.92,1.47,2,1.03.42-.17,1.11-.54,2.07-1.09,4.33-2.51,7.03-4.06,8.11-4.67.54-.31,1.11-.74,1.05-1.44"/><path class="cls-4" d="M178.63,127.68s.03-.04.02-.06t0,0l-3.42-5.41c-.03-.06-.1-.08-.16-.07-1.61.41-3.06,1.02-4.56,1.57-.91.33-1.81.54-2.7.62-.2.02-.39-.06-.52-.2-.57-.63-.96-1.7-.09-2.32.28-.2.58-.35.91-.45,2.37-.77,4.71-1.53,7.02-2.3.32-.1.53-.16.65-.16.71,0,1.14.44,1.5,1.02,1.57,2.52,2.86,4.58,3.86,6.17.05.09.17.11.25.07.66-.36.86-.53,1.49-.52.84.01,1.36.47,1.43,1.36.06.7-.51,1.13-1.05,1.44-1.07.61-3.78,2.17-8.11,4.67-.96.56-1.65.92-2.07,1.09-1.08.44-1.63-.13-2-1.03-.02-.04-.03-.08-.03-.13-.03-.6.24-1.06.8-1.39,3.07-1.79,5.33-3.11,6.77-3.96"/><path class="cls-4" d="M49.63,125.95c-.17-.08-.56-.15-.85-.26-2.14-.84-4.19-1.64-6.14-2.38-1.05-.4-1.3-1.1-.74-2.12.34-.62.88-.82,1.6-.59,2.65.83,6.14,2.25,8.25,3.08.58.23,1.08.47,1.22,1.12.08.4-.09,1.19-.21,1.65-1.55,5.94-2.82,10.7-3.81,14.27-.31,1.11-2.81,1.72-2.99.1-.04-.33,0-.64.1-.94.69-2.05,1.27-3.95,1.74-5.7.86-3.22,1.44-5.39,1.74-6.51.14-.51.23-.97.28-1.39.02-.14-.06-.28-.19-.34"/><path class="cls-4" d="M163.05,126.29c-.01-.06-.08-.1-.14-.09,0,0-.02,0-.02,0-.96.44-2.1.66-2.54-.62-.26-.76-.03-1.34.68-1.75.96-.55,1.9-.89,2.82-1.05.76-.13,1.29.18,1.59.91.17.41.35,1.11.54,2.11.29,1.49.48,2.65.57,3.48.12,1.08,0,1.47-1.11,1.77-1.03.28-1.46-.44-1.65-1.32-.26-1.24-.5-2.39-.74-3.45"/><path class="cls-4" d="M56.22,127.97c.03-.09-.01-.19-.1-.23-.19-.1-.46-.23-.8-.4-.23-.11-.43-.39-.61-.82-.02-.04-.03-.09-.03-.13.03-1.24.96-1.71,2.08-1.54.71.11,2.57.39,2.77,1.34.15.69-.2,1.69-.47,2.48-2.02,6-3.06,9.11-3.12,9.31-.01.04-.03.08-.06.11-1.14,1.49-3.13.37-2.56-1.36,1.89-5.72,2.85-8.64,2.89-8.76"/><path class="cls-4" d="M63,129.79c.02-.06-.02-.13-.08-.14,0,0-.02,0-.02,0-1.05-.08-2.16-.44-1.92-1.78.14-.79.62-1.19,1.45-1.2,1.1-.01,2.09.14,2.97.45.72.26,1.04.78.94,1.57-.05.44-.24,1.14-.55,2.1-.47,1.44-.87,2.55-1.19,3.32-.42,1-.72,1.28-1.83,1.01-1.03-.25-1.06-1.1-.8-1.96.38-1.21.72-2.33,1.03-3.37"/><path class="cls-4" d="M68.69,130.16c-.1-.23-.16-.36-.17-.39-.34-.86-.03-1.74.83-2.05.17-.06.44-.05.82.03,2.97.62,5.48,1.15,7.53,1.6.52.11,1.02.25,1.51.41,1.33.44.85,2.18.75,3.19-.33,3.25-.7,6.33-1.11,9.26-.09.65-.71,1-1.36.94-1.55-.14-1.43-1.33-1.29-2.66.19-1.79.45-4.31.78-7.57.02-.2.03-.41.04-.61,0-.1-.07-.19-.17-.22-1.06-.23-2.68-.57-4.86-1.03-.53-.11-.54.15-.65.58-.29,1.14-1.08,4.11-2.37,8.93-.24.89-.83,1.21-1.77.98-1.08-.27-1.14-1.25-.9-2.19.77-3.08,1.64-6.17,2.38-9.04.01-.06,0-.11-.01-.17"/><path class="cls-4" d="M125.25,132.64c-.05,0-.09.05-.09.11.24,5.66.44,10.75.59,15.27.02.5-.23.89-.75,1.16-.04.02-.1.04-.15.04-.8.06-1.37.1-1.73-.59-.1-.2-.17-.53-.21-.98-.12-1.63-.2-2.72-.22-3.27-.05-1.26-.23-5.05-.52-11.36,0-.06-.04-.11-.1-.12-1.07-.36-2.05-.23-1.92-1.79.09-1.08,1.09-1.2,1.96-1.25,1.41-.09,4.57-.23,9.49-.42.97-.04,1.54-.03,1.7.02,1.08.38,1,1.82.94,2.83-.26,3.9-.47,7.26-.66,10.07-.04.67-.35,1.15-.92,1.44-.17.08-.6.14-1.29.16-.81.03-1.62.05-2.43.08-.45.01-.76-.02-.92-.1-.6-.29-.72-.9-.67-1.58.1-1.39,2.2-1.21,3.12-1.27.22-.01.34-.14.35-.37.11-2.18.26-4.89.46-8.13,0-.1-.07-.18-.16-.19-.26-.03-.56-.03-.9-.01-1.67.09-3.12.15-4.36.2-.23,0-.44.03-.63.06"/><path class="cls-4" d="M36.02,129.88l.38.14c.61.23.92.91.69,1.51l-.14.38c-.23.61-.9.92-1.51.69l-.38-.14c-.61-.23-.92-.9-.69-1.51l.14-.38c.23-.61.9-.92,1.51-.69"/><path class="cls-4" d="M108.04,133.35c-.77-.4-1.53-.55-1.4-1.66.06-.53.28-.9.66-1.11.22-.12.66-.18,1.32-.16,2.85.06,5.5.12,7.97.16.82.01,1.34.14,1.77.74.22.31.3,1.19.36,1.71.23,1.93.5,4.8.82,8.61.03.34.03.56,0,.65-.15.49-.35.89-.91,1.01-3.12.65-6.41,1.18-9.88,1.59-.48.06-.84.03-1.08-.07-.54-.24-.81-.71-.79-1.41,0-.49.22-.84.64-1.03.42-.2.87-.33,1.34-.4,4.68-.73,7.2-1.12,7.57-1.18.1-.02.18-.11.17-.22l-.71-6.88c-.01-.11-.1-.19-.21-.19l-4.39-.16c-.07,0-.14.04-.16.11-.2.63-.31,1.21-.35,1.74-.07,1.04-.26,2.92-1.61,2.98-2.02.08-1.5-2-1.23-3.31.04-.18.1-.65.17-1.39,0-.05-.02-.09-.06-.12"/><path class="cls-4" d="M102.11,134.28c-.07-.13-.2-.2-.39-.22-3.42-.31-5.85-.53-7.31-.66-.93-.08-1.43-.84-1.3-1.74.11-.73.85-1.23,1.55-1.16,5.42.51,8.3.78,8.63.81.54.05,1.01.26,1.41.64.06.06.1.13.13.2.12.37.19.63.19.78.03,3.26.06,6.69.11,10.31,0,.47-.04.78-.13.95-.31.58-1,.84-1.64.67-1.41-.35-1.07-2.23-1.11-3.17-.1-2.78-.07-5.49-.12-7.36,0-.03,0-.05-.02-.07"/><path class="cls-4" d="M94.85,135.34h.09c.77.1,1.32.8,1.22,1.57l-.75,6.27c-.09.77-.79,1.31-1.55,1.22h-.1c-.77-.1-1.31-.8-1.22-1.56l.75-6.27c.09-.77.79-1.31,1.55-1.22"/><path class="cls-4" d="M144.44,138.61l.42-.1c.63-.15,1.26.25,1.41.88l.08.36c.15.63-.25,1.26-.88,1.41l-.43.1c-.63.14-1.26-.25-1.41-.88l-.08-.36c-.15-.63.25-1.26.88-1.41"/><path class="cls-4" d="M88.82,141.26l.45.03c.64.04,1.12.59,1.08,1.22l-.03.42c-.04.64-.59,1.12-1.22,1.08l-.45-.03c-.64-.04-1.12-.59-1.08-1.22l.03-.42c.04-.64.59-1.12,1.22-1.08"/><path class="cls-2" d="M211.09,44.96c3.28,6,4.79,12.76,4.08,19.56-1.01,9.72-6.45,18.27-13.35,24.95-.22.21-.62.59-1.21,1.14-.52.48-.93.86-1.23,1.12-6.08,5.26-13,9.56-20.2,13.01-2.54,1.22-5.25,2.4-8.13,3.56,0,0,0,0-.01,0,0,0,0,0,0,0,.13-.06.38-.17.76-.33,2.07-.86,4.55-2.01,7.43-3.44,5.26-2.61,10.19-5.69,14.78-9.23,11.44-8.83,20.71-21.76,19.39-36.86-1.11-12.69-9.06-23.12-18.74-30.79-5.13-4.07-10.8-7.53-16.6-10.34-2.08-1.01-4.61-2.14-7.58-3.4,0,0-.01-.01,0-.02,0,0,0,0,0,0,0,0,0,0,.01,0,.01,0,.02,0,.03,0,3.04,1.23,5.68,2.37,7.91,3.42,9.36,4.42,18.3,10.15,25.41,17.69,2.89,3.07,5.31,6.39,7.26,9.96M157.84,12.73c7.03,2.09,13.71,4.73,20.03,7.9,6.26,3.14,12.17,6.95,17.37,11.5,8.51,7.44,15.21,17.44,15.21,29.08s-6.7,21.64-15.21,29.07c-5.2,4.55-11.12,8.36-17.38,11.5-6.33,3.18-13,5.81-20.03,7.9-15.72,4.68-32.11,6.81-48.53,6.81-16.43,0-32.82-2.13-48.53-6.81-7.03-2.09-13.71-4.73-20.03-7.9-6.25-3.14-12.17-6.95-17.37-11.5-8.51-7.44-15.21-17.44-15.21-29.08,0-11.64,6.7-21.64,15.21-29.07,5.2-4.55,11.12-8.36,17.38-11.5,6.32-3.18,13-5.81,20.03-7.9,15.72-4.68,32.11-6.81,48.53-6.81,16.42,0,32.82,2.13,48.53,6.81M47.48,14.14s0,.03-.02.04c-1.43.61-2.79,1.21-4.07,1.78-3.63,1.64-7.14,3.48-10.53,5.51-5.53,3.32-10.7,7.24-15.2,11.84-.03.03-.05.06-.06.09-.01.04-.03.06-.05.08-.42.41-.98,1.02-1.67,1.83-.17.2-.26.31-.29.33-2.34,2.57-4.37,5.46-6.09,8.67-1.76,3.29-2.98,6.6-3.66,9.93-1.44,7.03-.74,13.88,2.1,20.57,1.75,4.12,4.22,8.03,7.41,11.72,8.56,9.9,20.29,16.81,32.31,21.76h0s.02.02.01.04c0,0-.01.01-.02.01-2.65-1.06-5.34-2.25-8.07-3.54-8.8-4.19-17.09-9.56-23.89-16.45-5.55-5.63-9.91-12.48-11.66-20.21-.57-2.53-.81-5.26-.72-8.19.36-11.15,6.81-20.89,14.73-28.17,4.19-3.85,8.87-7.19,13.74-10.03,3.05-1.78,6.04-3.35,8.97-4.7,1.86-.86,4.1-1.83,6.72-2.92h0s.02,0,.03.01M218.62,61.2C218.62,27.4,169.68,0,109.31,0S0,27.4,0,61.2s48.94,61.2,109.31,61.2,109.31-27.4,109.31-61.2"/></g></svg>